<!DOCTYPE svg PUBLIC "-//W3C//DTD SVG 1.1//EN" "http://www.w3.org/Graphics/SVG/1.1/DTD/svg11.dtd">
<svg id="logo" version="1.1" xmlns="http://www.w3.org/2000/svg" xmlns:xlink="http://www.w3.org/1999/xlink" preserveAspectRatio="xMidYMid meet" viewBox="189.30000000000052 131.6137976610927 303.99999999999994 304.00000000000017" width="40" height="40"><defs><path d="M352.59 133.11L358.64 133.73L364.62 134.58L370.51 135.66L376.33 136.98L382.06 138.51L387.69 140.27L393.23 142.23L398.66 144.41L403.99 146.79L409.21 149.37L414.31 152.14L419.29 155.1L424.14 158.25L428.86 161.57L433.45 165.07L437.9 168.74L442.2 172.57L446.35 176.57L450.34 180.72L454.17 185.02L457.84 189.46L461.34 194.05L464.67 198.77L467.81 203.62L470.77 208.6L473.55 213.7L476.13 218.92L478.5 224.25L480.68 229.69L482.65 235.22L484.4 240.86L485.94 246.59L487.25 252.4L488.34 258.3L489.19 264.27L489.8 270.32L490.17 276.43L490.3 282.61L490.17 288.79L489.8 294.91L489.19 300.96L488.34 306.93L487.25 312.83L485.94 318.64L484.4 324.37L482.65 330L480.68 335.54L478.5 340.98L476.13 346.31L473.55 351.52L470.77 356.62L467.81 361.6L464.67 366.46L461.34 371.18L457.84 375.76L454.17 380.21L450.34 384.51L446.35 388.66L442.2 392.65L437.9 396.49L433.45 400.16L428.86 403.66L424.14 406.98L419.29 410.13L414.31 413.09L409.21 415.86L403.99 418.44L398.66 420.82L393.23 422.99L387.69 424.96L382.06 426.72L376.33 428.25L370.51 429.56L364.62 430.65L358.64 431.5L352.59 432.12L346.48 432.49L340.3 432.61L334.12 432.49L328.01 432.12L321.96 431.5L315.98 430.65L310.09 429.56L304.27 428.25L298.54 426.72L292.91 424.96L287.37 422.99L281.94 420.82L276.61 418.44L271.39 415.86L266.29 413.09L261.31 410.13L256.46 406.98L251.74 403.66L247.15 400.16L242.7 396.49L238.4 392.65L234.25 388.66L230.26 384.51L226.43 380.21L222.76 375.76L219.26 371.18L215.93 366.46L212.79 361.6L209.83 356.62L207.05 351.52L204.47 346.31L202.1 340.98L199.92 335.54L197.95 330L196.2 324.37L194.66 318.64L193.35 312.83L192.26 306.93L191.41 300.96L190.8 294.91L190.43 288.79L190.3 282.61L190.43 276.43L190.8 270.32L191.41 264.27L192.26 258.3L193.35 252.4L194.66 246.59L196.2 240.86L197.95 235.22L199.92 229.69L202.1 224.25L204.47 218.92L207.05 213.7L209.83 208.6L212.79 203.62L215.93 198.77L219.26 194.05L222.76 189.46L226.43 185.02L230.26 180.72L234.25 176.57L238.4 172.57L242.7 168.74L247.15 165.07L251.74 161.57L256.46 158.25L261.31 155.1L266.29 152.14L271.39 149.37L276.61 146.79L281.94 144.41L287.37 142.23L292.91 140.27L298.54 138.51L304.27 136.98L310.09 135.66L315.98 134.58L321.96 133.73L328.01 133.11L334.12 132.74L340.3 132.61L346.48 132.74L352.59 133.11ZM395.5 276.72L392.48 277.03L389.49 277.45L386.54 277.97L383.63 278.57L380.77 279.24L377.95 279.98L375.18 280.78L372.47 281.62L369.8 282.5L367.19 283.4L364.64 284.31L362.15 285.22L359.73 286.13L357.36 287.03L355.07 287.89L354.63 288.06L354.65 289.07L354.58 292.41L354.4 295.71L354.09 298.97L353.66 302.19L353.12 305.37L352.47 308.51L351.7 311.6L350.82 314.64L349.84 317.63L348.75 320.56L347.56 323.44L346.27 326.25L344.88 329L343.4 331.69L341.83 334.31L340.17 336.85L338.42 339.33L336.58 341.73L334.67 344.05L332.67 346.28L330.59 348.44L328.44 350.51L326.22 352.49L323.93 354.37L321.57 356.17L319.14 357.87L316.65 359.46L314.1 360.96L311.49 362.35L308.83 363.63L306.11 364.81L303.34 365.87L300.52 366.81L297.66 367.64L294.75 368.35L291.81 368.94L288.82 369.4L285.79 369.73L282.74 369.93L279.65 370L276.56 369.93L273.5 369.73L270.48 369.4L267.49 368.94L264.54 368.35L261.63 367.64L258.77 366.81L255.95 365.87L253.18 364.81L250.47 363.63L247.8 362.35L245.19 360.96L245.01 360.85L245.41 361.33L248.6 364.91L251.93 368.37L255.39 371.7L258.97 374.89L262.67 377.95L266.5 380.87L270.43 383.64L274.48 386.26L278.63 388.73L282.88 391.04L287.22 393.19L291.66 395.17L296.19 396.98L300.81 398.62L305.5 400.08L310.28 401.36L315.12 402.46L320.04 403.36L325.01 404.07L330.05 404.59L335.15 404.9L340.3 405L345.45 404.9L350.55 404.59L355.59 404.07L360.56 403.36L365.48 402.46L370.32 401.36L375.1 400.08L379.79 398.62L384.41 396.98L388.94 395.17L393.38 393.19L397.72 391.04L401.97 388.73L406.12 386.26L410.17 383.64L414.1 380.87L417.93 377.95L421.63 374.89L425.21 371.7L428.67 368.37L432 364.91L435.19 361.33L438.25 357.63L441.17 353.8L443.94 349.87L446.56 345.82L449.03 341.67L451.34 337.42L453.49 333.08L455.47 328.64L457.28 324.11L458.92 319.49L460.38 314.8L461.66 310.02L462.76 305.18L463.66 300.26L464.37 295.29L464.64 292.66L463.83 292.58L462.17 292.31L460.42 291.93L458.58 291.44L456.67 290.87L454.67 290.22L452.59 289.5L450.44 288.72L448.22 287.89L445.93 287.03L443.57 286.13L441.14 285.22L438.65 284.31L436.1 283.4L433.49 282.5L430.83 281.62L428.11 280.78L425.34 279.98L422.52 279.24L419.66 278.57L416.75 277.97L413.81 277.45L410.82 277.03L407.79 276.72L404.74 276.53L401.65 276.46L398.56 276.53L395.5 276.72ZM245.48 342.93L247.63 344.25L249.82 345.5L252.04 346.67L254.27 347.76L256.53 348.76L258.79 349.68L261.06 350.5L263.33 351.23L265.59 351.87L267.29 352.27L266.32 351.66L265.02 350.78L263.75 349.86L262.54 348.89L261.37 347.89L260.24 346.86L259.17 345.79L258.14 344.68L257.16 343.54L256.64 342.87L254.88 342.79L252.92 342.64L250.99 342.43L249.08 342.15L247.2 341.83L245.35 341.44L243.53 341.01L242.04 340.6L243.36 341.53L245.48 342.93ZM325.23 328.05L324.68 328.13L324.11 328.24L323.5 328.37L322.86 328.52L322.19 328.69L321.48 328.87L320.74 329.06L319.96 329.26L319.15 329.46L318.3 329.66L317.41 329.85L316.48 330.03L315.51 330.2L314.5 330.36L313.45 330.49L312.35 330.6L311.22 330.69L310.04 330.74L308.81 330.76L307.5 330.72L306.08 330.61L304.55 330.43L302.93 330.2L301.23 329.91L299.45 329.58L297.61 329.2L296.6 328.99L295.69 329.84L294.45 330.91L293.15 331.95L291.81 332.95L290.42 333.9L288.98 334.82L287.5 335.69L285.97 336.52L284.4 337.31L282.79 338.04L281.14 338.74L279.46 339.38L277.73 339.97L275.97 340.52L274.18 341.01L272.36 341.44L270.51 341.83L268.63 342.15L266.72 342.43L265.68 342.54L265.84 342.66L267.09 343.58L268.39 344.46L269.74 345.31L271.13 346.12L272.57 346.88L274.04 347.61L275.54 348.28L277.06 348.91L278.6 349.5L280.16 350.02L281.72 350.5L283.29 350.92L284.85 351.28L286.41 351.57L287.95 351.81L288.36 351.86L288.76 351.75L290.77 351.22L292.8 350.64L294.85 350.03L296.91 349.38L298.98 348.69L301.05 347.97L303.12 347.21L305.18 346.42L307.23 345.6L309.26 344.74L311.28 343.85L313.27 342.93L315.24 341.98L317.17 341L319.06 339.98L320.92 338.94L322.72 337.87L324.48 336.77L326.18 335.64L327.82 334.49L329.4 333.31L330.3 332.59L330.11 331.83L329.91 331.15L329.68 330.54L329.44 330.01L329.18 329.55L328.89 329.15L328.58 328.82L328.25 328.55L327.9 328.34L327.52 328.18L327.12 328.07L326.69 328L326.23 327.98L325.74 328L325.23 328.05ZM262.44 323.55L261.23 323.8L260.16 324.14L259.23 324.59L258.44 325.15L257.82 325.83L257.36 326.64L257.08 327.59L256.98 328.67L257.04 329.83L257.23 330.98L257.53 332.12L257.94 333.25L258.46 334.38L258.95 335.24L259.4 335.23L260.82 335.11L262.2 334.92L263.57 334.69L264.96 334.44L266.37 334.17L267.79 333.87L269.23 333.56L270.67 333.23L272.12 332.88L273.57 332.5L275.01 332.12L276.45 331.71L277.87 331.28L279.28 330.84L280.68 330.38L282.05 329.9L283.39 329.4L284.71 328.89L286 328.37L287.25 327.83L288.46 327.27L288.61 327.2L287.72 326.99L285.67 326.53L283.63 326.07L281.59 325.62L279.57 325.2L277.58 324.8L275.63 324.44L273.72 324.11L271.87 323.84L270.08 323.62L268.37 323.46L266.74 323.36L265.2 323.34L263.76 323.41L262.44 323.55ZM224.83 305.66L223.57 305.86L222.43 306.15L221.41 306.53L220.53 307.01L219.79 307.58L219.21 308.27L218.78 309.06L218.74 309.18L218.94 310.02L220.22 314.8L220.51 315.74L220.68 316.13L221.7 318.22L222.84 320.27L223.73 321.71L224.61 322.58L225.68 323.53L226.82 324.46L228.01 325.37L229.27 326.25L230.57 327.09L231.93 327.91L233.32 328.69L234.76 329.44L236.23 330.16L237.73 330.83L239.25 331.46L240.8 332.06L242.36 332.6L243.94 333.11L245.52 333.56L247.11 333.97L248.7 334.32L250.28 334.63L251.85 334.87L251.95 334.89L251.89 334.76L251.38 333.4L250.93 332.02L250.54 330.62L250.22 329.2L249.97 327.76L249.79 326.3L249.68 324.83L249.65 323.34L249.68 321.92L249.79 320.64L249.97 319.5L250.22 318.5L250.54 317.62L250.93 316.86L251.38 316.21L251.89 315.68L252.47 315.26L253.11 314.93L253.8 314.69L254.56 314.55L255.37 314.48L256.24 314.49L257.16 314.58L258.14 314.73L259.17 314.93L260.24 315.2L261.37 315.51L262.54 315.86L263.75 316.25L265.02 316.68L266.32 317.13L267.66 317.6L269.05 318.08L270.47 318.58L271.93 319.08L273.43 319.57L274.96 320.06L276.52 320.54L278.12 320.99L279.74 321.43L281.39 321.83L283.07 322.2L284.78 322.52L286.51 322.8L288.26 323.03L290.03 323.2L291.83 323.31L293.64 323.34L295.08 323.31L295.5 322.98L296.26 322.32L296.95 321.64L297.56 320.95L298.1 320.26L298.54 319.55L298.91 318.83L299.18 318.1L299.36 317.36L299.43 316.61L299.41 315.85L299.29 315.08L299.1 314.35L298.89 313.69L298.67 313.09L298.43 312.57L298.17 312.1L297.89 311.7L297.59 311.36L297.27 311.06L296.93 310.83L296.56 310.63L296.18 310.49L295.76 310.39L295.33 310.32L294.87 310.3L294.38 310.31L293.86 310.35L293.32 310.41L292.75 310.51L292.15 310.62L291.53 310.76L290.87 310.91L290.18 311.07L289.45 311.25L288.7 311.43L287.91 311.62L287.09 311.81L286.23 311.99L285.34 312.18L284.41 312.36L283.44 312.52L282.44 312.68L281.4 312.82L280.32 312.94L279.2 313.03L278.03 313.11L276.83 313.15L275.58 313.17L274.26 313.14L272.83 313.04L271.31 312.88L269.69 312.68L268 312.42L266.23 312.12L264.39 311.79L262.5 311.42L260.56 311.03L258.57 310.61L256.55 310.18L254.51 309.74L252.45 309.3L250.37 308.85L248.3 308.42L246.23 307.99L244.18 307.58L242.15 307.19L240.15 306.83L238.19 306.5L236.27 306.2L234.41 305.95L232.61 305.75L230.88 305.61L229.23 305.52L227.67 305.5L226.19 305.54L224.83 305.66ZM333.99 299.54L333.23 299.65L332.43 299.82L331.59 300.03L330.71 300.28L329.8 300.56L328.84 300.87L327.84 301.21L326.8 301.56L325.72 301.93L324.59 302.3L323.42 302.68L322.2 303.06L320.94 303.43L319.62 303.79L318.26 304.13L316.85 304.45L315.39 304.75L313.88 305.01L312.31 305.24L310.69 305.42L309.02 305.56L307.37 305.64L307.33 307.04L307.21 308.56L307.01 310.07L306.74 311.56L306.39 313.03L305.96 314.48L305.46 315.91L304.9 317.32L304.26 318.7L303.56 320.05L302.79 321.38L302.01 322.6L302.5 322.52L304.21 322.2L305.88 321.83L307.54 321.43L309.16 320.99L310.76 320.54L312.32 320.06L313.85 319.57L315.34 319.08L316.8 318.58L318.23 318.08L319.61 317.6L320.96 317.13L322.26 316.68L323.52 316.25L324.74 315.86L325.91 315.51L327.04 315.2L328.11 314.93L329.14 314.73L330.11 314.58L331.04 314.49L331.9 314.48L332.72 314.55L333.47 314.69L334.17 314.93L334.81 315.26L335.39 315.68L335.9 316.21L336.35 316.86L336.74 317.62L337.05 318.5L337.3 319.5L337.48 320.64L337.59 321.92L337.63 323.34L337.59 324.83L337.56 325.33L338.28 324.36L339.19 322.99L339.99 321.6L340.69 320.19L341.27 318.76L341.73 317.31L342.08 315.85L342.29 314.36L342.38 312.86L342.33 311.34L342.15 309.81L341.88 308.34L341.59 307L341.27 305.78L340.93 304.7L340.57 303.73L340.18 302.87L339.77 302.13L339.33 301.48L338.86 300.94L338.36 300.49L337.83 300.13L337.28 299.85L336.69 299.65L336.06 299.52L335.41 299.47L334.72 299.47L333.99 299.54ZM227.56 289.36L225.71 289.71L224.02 290.22L222.49 290.9L221.13 291.75L219.95 292.78L218.97 294.01L218.19 295.43L217.87 296.35L218.63 296.42L219.7 296.57L220.83 296.79L222.02 297.06L223.26 297.38L224.55 297.75L225.9 298.16L227.29 298.59L228.72 299.06L230.21 299.55L231.74 300.05L233.31 300.56L234.92 301.08L236.57 301.59L238.25 302.1L239.98 302.59L241.73 303.06L243.53 303.51L245.35 303.93L247.2 304.31L249.08 304.65L250.99 304.94L252.92 305.17L254.88 305.35L256.86 305.46L258.85 305.49L260.85 305.46L262.83 305.35L264.79 305.17L266.72 304.94L268.63 304.65L270.51 304.31L272.36 303.93L274.18 303.51L275.97 303.06L277.73 302.59L279.46 302.1L281.14 301.59L282.61 301.13L281.51 300.82L278.66 299.98L275.77 299.12L272.85 298.24L269.9 297.35L266.94 296.46L263.97 295.58L261.01 294.72L258.07 293.89L255.15 293.09L252.27 292.34L249.44 291.64L246.65 291.01L243.94 290.45L241.3 289.97L238.74 289.59L236.27 289.3L233.92 289.13L231.67 289.07L229.55 289.15L227.56 289.36ZM330.05 155.41L325.01 155.93L320.04 156.64L315.12 157.54L310.28 158.64L305.5 159.92L300.81 161.38L296.19 163.02L291.66 164.83L287.22 166.81L282.88 168.96L278.63 171.27L274.48 173.74L270.43 176.36L266.5 179.13L262.67 182.05L258.97 185.11L255.39 188.3L251.93 191.63L248.6 195.09L245.41 198.67L242.35 202.37L239.43 206.2L236.66 210.13L234.04 214.18L231.57 218.33L229.26 222.58L227.11 226.92L225.13 231.36L223.32 235.89L221.68 240.51L220.22 245.2L218.94 249.98L217.84 254.82L216.94 259.74L216.23 264.71L215.77 269.26L215.89 269.26L217.46 269.45L219.13 269.78L220.88 270.25L222.71 270.84L224.63 271.53L226.62 272.33L228.7 273.2L230.85 274.15L233.07 275.16L235.36 276.21L237.73 277.3L240.15 278.41L242.64 279.52L245.19 280.63L247.8 281.73L250.47 282.79L253.18 283.82L255.95 284.79L258.77 285.69L261.63 286.51L264.54 287.24L267.49 287.87L270.48 288.38L273.5 288.76L276.56 288.99L279.65 289.07L282.74 288.99L285.79 288.76L288.82 288.38L291.81 287.87L294.75 287.24L297.66 286.51L300.52 285.69L303.34 284.79L306.11 283.82L308.83 282.79L311.49 281.73L314.1 280.63L316.65 279.52L319.14 278.41L321.57 277.3L323.93 276.21L326.22 275.16L326.68 274.95L326.71 273.72L326.9 271.01L327.2 268.33L327.63 265.69L328.17 263.07L328.83 260.5L329.6 257.96L330.47 255.46L331.46 253.01L332.54 250.6L333.73 248.24L335.02 245.93L336.41 243.67L337.89 241.46L339.46 239.31L341.13 237.22L342.88 235.19L344.71 233.22L346.63 231.31L348.62 229.47L350.7 227.7L352.85 226L355.07 224.38L357.36 222.83L359.73 221.35L362.15 219.96L364.64 218.65L367.19 217.42L369.8 216.28L372.47 215.22L375.18 214.26L377.95 213.39L380.77 212.61L383.63 211.93L386.54 211.35L389.49 210.87L392.48 210.49L395.5 210.22L398.56 210.05L401.65 210L404.74 210.05L407.79 210.22L410.82 210.49L413.81 210.87L416.75 211.35L419.66 211.93L422.52 212.61L425.34 213.39L428.11 214.26L430.83 215.22L433.49 216.28L436.1 217.42L438.65 218.65L441.14 219.96L443.57 221.35L445.93 222.83L448.22 224.38L450.44 226L452.59 227.7L454.6 229.41L453.49 226.92L451.34 222.58L449.03 218.33L446.56 214.18L443.94 210.13L441.17 206.2L438.25 202.37L435.19 198.67L432 195.09L428.67 191.63L425.21 188.3L421.63 185.11L417.93 182.05L414.1 179.13L410.17 176.36L406.12 173.74L401.97 171.27L397.72 168.96L393.38 166.81L388.94 164.83L384.41 163.02L379.79 161.38L375.1 159.92L370.32 158.64L365.48 157.54L360.56 156.64L355.59 155.93L350.55 155.41L345.45 155.1L340.3 155L335.15 155.1L330.05 155.41ZM418.46 263.1L416.51 263.24L414.57 263.43L412.67 263.67L410.79 263.95L408.93 264.26L407.11 264.6L405.32 264.97L403.56 265.36L401.84 265.77L400.15 266.18L398.68 266.56L399.78 266.82L402.63 267.5L405.52 268.21L408.45 268.93L411.39 269.66L414.36 270.4L417.32 271.12L420.28 271.83L423.22 272.51L426.14 273.17L429.02 273.78L431.86 274.35L434.64 274.87L437.36 275.33L440 275.72L442.56 276.04L445.02 276.27L447.38 276.42L449.62 276.46L451.75 276.4L453.74 276.23L455.58 275.94L457.27 275.52L458.81 274.96L460.16 274.26L461.34 273.42L462.32 272.41L463.11 271.24L463.43 270.48L462.67 270.43L461.59 270.3L460.46 270.13L459.27 269.9L458.03 269.64L456.74 269.34L455.4 269L454.01 268.64L452.57 268.26L451.09 267.86L449.56 267.45L447.99 267.03L446.38 266.6L444.73 266.18L443.04 265.77L441.32 265.36L439.56 264.97L437.77 264.6L435.95 264.26L434.09 263.95L432.21 263.67L430.3 263.43L428.37 263.24L426.42 263.1L424.44 263.01L422.44 262.98L420.44 263.01L418.46 263.1ZM342.1 248.6L341.3 249.75L340.61 250.9L340.02 252.08L339.56 253.27L339.22 254.47L339 255.69L338.91 256.92L338.96 258.17L339.15 259.43L339.42 260.64L339.71 261.74L340.02 262.74L340.36 263.63L340.72 264.43L341.11 265.13L341.52 265.74L341.96 266.27L342.43 266.72L342.93 267.09L343.46 267.38L344.02 267.61L344.61 267.78L345.23 267.88L345.89 267.93L346.58 267.92L347.3 267.87L348.07 267.77L348.87 267.64L349.7 267.46L350.58 267.26L351.49 267.03L352.45 266.77L353.45 266.5L354.49 266.21L355.57 265.9L356.7 265.6L357.87 265.29L359.09 264.98L360.36 264.67L361.67 264.38L363.03 264.1L364.44 263.83L365.91 263.59L367.42 263.37L368.98 263.19L370.6 263.04L372.27 262.92L373.93 262.86L373.96 261.71L374.08 260.46L374.28 259.22L374.56 257.99L374.91 256.78L375.33 255.59L375.83 254.42L376.4 253.26L377.03 252.13L377.74 251.02L378.51 249.92L379.29 248.92L378.79 248.99L377.09 249.26L375.41 249.56L373.76 249.89L372.13 250.24L370.54 250.62L368.98 251.01L367.45 251.41L365.95 251.82L364.49 252.23L363.07 252.64L361.68 253.03L360.34 253.42L359.03 253.79L357.77 254.14L356.55 254.46L355.38 254.75L354.26 255.01L353.18 255.22L352.16 255.39L351.18 255.52L350.26 255.58L349.39 255.59L348.58 255.54L347.82 255.42L347.12 255.23L346.48 254.96L345.91 254.61L345.39 254.17L344.94 253.64L344.56 253.02L344.24 252.3L343.99 251.47L343.81 250.53L343.7 249.48L343.66 248.32L343.7 247.09L343.74 246.68L343.01 247.48L342.1 248.6ZM429.92 240.05L430.37 241.19L430.75 242.34L431.07 243.5L431.32 244.69L431.5 245.88L431.61 247.09L431.65 248.32L431.61 249.48L431.5 250.53L431.32 251.47L431.07 252.3L430.75 253.02L430.37 253.64L429.92 254.17L429.4 254.61L428.83 254.96L428.19 255.23L427.49 255.42L426.73 255.54L425.92 255.59L425.05 255.58L424.13 255.52L423.15 255.39L422.13 255.22L421.05 255.01L419.93 254.75L418.76 254.46L417.54 254.14L416.28 253.79L414.97 253.42L413.63 253.03L412.24 252.64L410.82 252.23L409.36 251.82L407.86 251.41L406.33 251.01L404.77 250.62L403.18 250.24L401.55 249.89L399.9 249.56L398.22 249.26L396.52 248.99L394.79 248.76L393.03 248.57L391.26 248.43L389.47 248.35L387.65 248.32L386.21 248.34L385.46 248.84L384.69 249.43L384 250.02L383.4 250.62L382.89 251.23L382.48 251.86L382.17 252.49L381.96 253.13L381.86 253.78L381.88 254.43L382.01 255.1L382.21 255.74L382.43 256.31L382.67 256.81L382.92 257.26L383.2 257.65L383.51 257.98L383.83 258.26L384.18 258.5L384.55 258.68L384.95 258.83L385.37 258.93L385.83 259L386.31 259.03L386.82 259.03L387.35 259L387.92 258.94L388.52 258.86L389.16 258.76L389.82 258.64L390.52 258.51L391.26 258.37L392.03 258.21L392.84 258.05L393.68 257.89L394.57 257.73L395.49 257.56L396.45 257.41L397.46 257.26L398.51 257.12L399.59 256.99L400.73 256.88L401.9 256.8L403.13 256.73L404.39 256.69L405.71 256.67L407.11 256.7L408.63 256.79L410.25 256.93L411.98 257.12L413.79 257.35L415.69 257.62L417.65 257.92L419.68 258.25L421.75 258.6L423.87 258.97L426.02 259.35L428.2 259.74L430.39 260.12L432.58 260.5L434.77 260.88L436.94 261.24L439.09 261.58L441.2 261.89L443.27 262.18L445.29 262.42L447.25 262.63L449.13 262.8L450.94 262.91L452.66 262.97L454.27 262.97L455.78 262.9L457.17 262.76L458.43 262.54L459.55 262.24L460.52 261.85L461.34 261.38L462 260.8L462.48 260.12L462.77 259.34L462.8 259.08L462.3 257.72L461.52 255.97L460.62 254.24L459.59 252.53L458.46 250.84L457.58 249.67L457.12 249.29L456.02 248.45L454.84 247.63L453.59 246.84L452.28 246.07L450.91 245.33L449.49 244.62L448.01 243.94L446.49 243.29L444.94 242.67L443.35 242.09L441.73 241.54L440.09 241.04L438.44 240.57L436.77 240.15L435.09 239.77L433.41 239.44L431.74 239.16L430.07 238.92L429.35 238.84L429.4 238.94L429.92 240.05ZM420.55 238.65L419.09 238.8L417.64 239.01L416.17 239.23L414.68 239.47L413.17 239.72L411.65 240L410.12 240.29L408.59 240.61L407.07 240.93L405.54 241.28L404.03 241.64L402.53 242.02L401.05 242.42L399.6 242.83L398.17 243.25L396.77 243.7L395.41 244.15L394.08 244.62L392.8 245.1L392.69 245.15L392.94 245.2L395.11 245.61L397.28 246.01L399.45 246.4L401.6 246.77L403.71 247.12L405.79 247.44L407.81 247.71L409.77 247.95L411.65 248.13L413.45 248.25L415.15 248.31L416.74 248.3L418.21 248.21L419.55 248.04L420.75 247.78L421.79 247.42L422.67 246.96L423.37 246.38L423.89 245.69L424.21 244.88L424.31 243.94L424.24 242.93L424.04 241.93L423.7 240.93L423.23 239.94L422.65 238.97L422.34 238.54L422.06 238.55L420.55 238.65ZM390.52 225.42L388.49 225.9L386.44 226.4L384.38 226.93L382.32 227.5L380.25 228.09L378.18 228.71L376.12 229.36L374.07 230.03L372.03 230.74L370.01 231.47L368.02 232.23L366.06 233.01L364.12 233.82L362.23 234.65L360.38 235.5L358.57 236.38L356.82 237.29L355.11 238.21L353.47 239.16L351.89 240.13L351 240.72L351.19 241.38L351.41 241.97L351.66 242.49L351.92 242.94L352.2 243.33L352.52 243.65L352.85 243.92L353.21 244.13L353.6 244.29L354.02 244.4L354.47 244.47L354.95 244.5L355.46 244.5L356 244.46L356.58 244.39L357.19 244.3L357.83 244.18L358.52 244.05L359.24 243.9L359.99 243.74L360.79 243.57L361.63 243.39L362.51 243.22L363.44 243.05L364.4 242.89L365.42 242.73L366.47 242.59L367.58 242.47L368.73 242.37L369.93 242.29L371.18 242.24L372.49 242.23L373.88 242.26L375.4 242.36L377.04 242.53L378.78 242.74L380.61 243L382.53 243.31L384.51 243.64L384.7 243.68L385.61 242.98L386.85 242.1L388.14 241.25L389.48 240.43L390.87 239.64L392.31 238.89L393.79 238.17L395.32 237.49L396.89 236.85L398.5 236.24L400.15 235.67L401.84 235.14L403.56 234.66L405.32 234.21L407.11 233.81L408.93 233.45L410.79 233.13L412.67 232.86L414.57 232.64L415.61 232.55L414.45 231.83L413.07 231.06L411.64 230.32L410.16 229.61L408.63 228.94L407.07 228.32L405.47 227.73L403.85 227.19L402.21 226.69L400.55 226.25L398.89 225.85L397.23 225.51L395.57 225.23L393.92 225L392.93 224.9L392.53 224.98L390.52 225.42ZM416.28 225.78L417.54 226.54L418.76 227.33L419.93 228.15L421.05 229L422.13 229.88L423.15 230.79L424.13 231.72L424.66 232.27L426.42 232.34L428.37 232.47L430.3 232.64L432.21 232.86L434.09 233.13L435.95 233.45L437.77 233.81L439.26 234.14L437.94 233.38L435.82 232.23L433.66 231.14L431.47 230.12L429.26 229.16L427.02 228.26L424.77 227.44L422.5 226.69L420.23 226.01L417.96 225.41L415.7 224.88L414 224.55L414.97 225.05L416.28 225.78Z" id="d2akD3ViP9"></path></defs><g><g><use xlink:href="#d2akD3ViP9" opacity="1" fill="#FCFCFC" fill-opacity="1"></use></g></g></svg>
