<?xml version="1.0" encoding="UTF-8" standalone="no"?>
<!DOCTYPE svg PUBLIC "-//W3C//DTD SVG 1.1//EN" "http://www.w3.org/Graphics/SVG/1.1/DTD/svg11.dtd">
<svg version="1.1" xmlns="http://www.w3.org/2000/svg" xmlns:xlink="http://www.w3.org/1999/xlink" preserveAspectRatio="xMidYMid meet" viewBox="0 0 640 640" width="640" height="640"><defs><path d="M356.69 18.78L368.63 20.5L380.43 22.7L392.06 25.36L403.51 28.46L414.78 32.01L425.86 35.99L436.73 40.39L447.38 45.21L457.82 50.42L468.02 56.03L477.98 62.02L487.68 68.39L497.13 75.11L506.3 82.19L515.19 89.62L523.79 97.38L532.09 105.46L540.08 113.85L547.75 122.55L555.09 131.54L562.09 140.82L568.74 150.38L575.03 160.19L580.95 170.27L586.49 180.59L591.65 191.14L596.41 201.92L600.76 212.92L604.7 224.12L608.2 235.52L611.27 247.11L613.9 258.87L616.07 270.8L617.78 282.89L619 295.13L619.75 307.5L620 320L619.75 332.5L619 344.87L617.78 357.11L616.07 369.2L613.9 381.13L611.27 392.89L608.2 404.48L604.7 415.88L600.76 427.08L596.41 438.08L591.65 448.86L586.49 459.41L580.95 469.73L575.03 479.81L568.74 489.62L562.09 499.18L555.09 508.46L547.75 517.45L540.08 526.15L532.09 534.54L523.79 542.62L515.19 550.38L506.3 557.81L497.13 564.89L487.68 571.61L477.98 577.98L468.02 583.97L457.82 589.58L447.38 594.79L436.73 599.61L425.86 604.01L414.78 607.99L403.51 611.54L392.06 614.64L380.43 617.3L368.63 619.5L356.69 621.22L344.59 622.46L332.36 623.22L320 623.47L307.64 623.22L295.41 622.46L283.31 621.22L271.37 619.5L259.57 617.3L247.94 614.64L236.49 611.54L225.22 607.99L214.14 604.01L203.27 599.61L192.62 594.79L182.18 589.58L171.98 583.97L162.02 577.98L152.32 571.61L142.87 564.89L133.7 557.81L124.81 550.38L116.21 542.62L107.91 534.54L99.92 526.15L92.25 517.45L84.91 508.46L77.91 499.18L71.26 489.62L64.97 479.81L59.05 469.73L53.51 459.41L48.35 448.86L43.59 438.08L39.24 427.08L35.3 415.88L31.8 404.48L28.73 392.89L26.1 381.13L23.93 369.2L22.22 357.11L21 344.87L20.25 332.5L20 320L20.25 307.5L21 295.13L22.22 282.89L23.93 270.8L26.1 258.87L28.73 247.11L31.8 235.52L35.3 224.12L39.24 212.92L43.59 201.92L48.35 191.14L53.51 180.59L59.05 170.27L64.97 160.19L71.26 150.38L77.91 140.82L84.91 131.54L92.25 122.55L99.92 113.85L107.91 105.46L116.21 97.38L124.81 89.62L133.7 82.19L142.87 75.11L152.32 68.39L162.02 62.02L171.98 56.03L182.18 50.42L192.62 45.21L203.27 40.39L214.14 35.99L225.22 32.01L236.49 28.46L247.94 25.36L259.57 22.7L271.37 20.5L283.31 18.78L295.41 17.54L307.64 16.78L320 16.53L332.36 16.78L344.59 17.54L344.59 17.54L356.69 18.78ZM424.35 308.71L418.38 309.56L412.48 310.6L406.66 311.81L400.94 313.18L395.3 314.68L389.77 316.29L384.33 317.99L379 319.76L373.78 321.58L368.68 323.43L363.7 325.28L358.85 327.12L354.13 328.93L349.54 330.68L348.65 331.01L348.69 333.07L348.57 339.82L348.2 346.49L347.58 353.09L346.73 359.61L345.64 366.05L344.33 372.39L342.8 378.65L341.04 384.79L339.07 390.84L336.9 396.77L334.52 402.59L331.94 408.28L329.17 413.85L326.21 419.28L323.06 424.58L319.74 429.73L316.24 434.74L312.57 439.59L308.73 444.28L304.74 448.81L300.59 453.17L296.29 457.36L291.84 461.36L287.26 465.18L282.54 468.81L277.68 472.24L272.7 475.48L267.6 478.5L262.39 481.32L257.06 483.91L251.62 486.29L246.08 488.43L240.45 490.35L234.72 492.03L228.91 493.46L223.01 494.64L217.04 495.57L210.99 496.24L204.87 496.65L198.69 496.79L192.51 496.65L186.4 496.24L180.35 495.57L174.38 494.64L168.48 493.46L162.66 492.03L156.94 490.35L151.3 488.43L145.77 486.29L140.33 483.91L135 481.32L129.78 478.5L129.42 478.29L130.21 479.25L136.6 486.5L143.26 493.5L150.17 500.23L157.34 506.7L164.75 512.88L172.39 518.78L180.26 524.39L188.35 529.69L196.65 534.68L205.15 539.36L213.85 543.71L222.73 547.72L231.79 551.39L241.02 554.7L250.41 557.66L259.95 560.25L269.64 562.46L279.47 564.29L289.43 565.73L299.51 566.76L309.7 567.39L320 567.6L330.3 567.39L340.49 566.76L350.57 565.73L360.53 564.29L370.36 562.46L380.05 560.25L389.59 557.66L398.98 554.7L408.21 551.39L417.27 547.72L426.15 543.71L434.85 539.36L443.35 534.68L451.65 529.69L459.74 524.39L467.61 518.78L475.25 512.88L482.66 506.7L489.83 500.23L496.74 493.5L503.4 486.5L509.79 479.25L515.91 471.76L521.74 464.03L527.28 456.06L532.52 447.88L537.46 439.49L542.08 430.89L546.38 422.09L550.34 413.11L553.97 403.95L557.25 394.61L560.17 385.11L562.73 375.45L564.92 365.65L566.73 355.71L568.15 345.64L568.68 340.33L567.06 340.17L563.74 339.62L560.24 338.84L556.57 337.86L552.73 336.7L548.74 335.39L544.59 333.93L540.29 332.35L535.84 330.68L531.26 328.93L526.54 327.12L521.68 325.28L516.7 323.43L511.6 321.58L506.39 319.76L501.06 317.99L495.62 316.29L490.08 314.68L484.45 313.18L478.72 311.81L472.91 310.6L467.01 309.56L461.04 308.71L454.99 308.08L448.87 307.69L442.69 307.55L436.51 307.69L430.4 308.08L430.4 308.08L424.35 308.71ZM134.66 444.7L139.04 447.22L143.47 449.59L147.95 451.79L152.46 453.82L156.98 455.68L161.52 457.35L166.06 458.83L170.59 460.11L173.98 460.93L172.04 459.7L169.43 457.91L166.91 456.04L164.48 454.09L162.13 452.07L159.88 449.97L157.73 447.81L155.68 445.57L153.73 443.27L152.67 441.91L149.16 441.75L145.24 441.44L141.38 441.01L137.56 440.46L133.8 439.8L130.1 439.02L126.45 438.14L123.48 437.31L126.11 439.19L130.35 442.02L130.35 442.02L134.66 444.7ZM289.53 411.96L288.6 412.11L287.61 412.3L286.59 412.53L285.51 412.78L284.39 413.06L283.22 413.36L282 413.68L280.73 414.01L279.41 414.35L278.03 414.69L276.6 415.04L275.12 415.37L273.57 415.69L271.98 416L270.32 416.29L268.61 416.56L266.83 416.8L265 417L263.1 417.17L261.13 417.29L259.11 417.37L257.02 417.4L254.81 417.34L252.43 417.18L249.9 416.92L247.23 416.57L244.43 416.13L241.51 415.62L238.48 415.05L235.36 414.42L232.6 413.83L230.77 415.55L228.29 417.72L225.71 419.81L223.03 421.83L220.24 423.76L217.37 425.62L214.4 427.38L211.35 429.06L208.21 430.65L204.99 432.14L201.69 433.54L198.31 434.84L194.86 436.04L191.35 437.14L187.77 438.14L184.12 439.02L180.42 439.8L176.65 440.46L172.84 441.01L170.77 441.24L172.56 442.61L174.73 444.15L176.98 445.65L179.29 447.09L181.67 448.47L184.1 449.8L186.59 451.06L189.12 452.25L191.69 453.38L194.29 454.44L196.91 455.42L199.56 456.33L202.21 457.16L204.87 457.9L207.54 458.57L210.19 459.14L212.83 459.62L215.46 460.01L216.1 460.09L216.92 459.88L220.95 458.79L225.01 457.63L229.1 456.39L233.22 455.07L237.36 453.68L241.5 452.23L245.63 450.7L249.75 449.1L253.86 447.43L257.93 445.7L261.96 443.9L265.95 442.03L269.87 440.1L273.74 438.12L277.53 436.07L281.23 433.96L284.84 431.79L288.36 429.56L291.76 427.28L295.04 424.95L298.2 422.56L299.99 421.11L299.68 419.8L299.34 418.59L298.97 417.5L298.58 416.52L298.15 415.64L297.7 414.87L297.21 414.19L296.69 413.61L296.14 413.12L295.56 412.71L294.94 412.39L294.28 412.13L293.59 411.95L292.86 411.84L292.09 411.79L291.28 411.79L290.43 411.85L290.43 411.85L289.53 411.96ZM163.41 402.98L161.42 403.44L159.62 404.05L158.03 404.82L156.65 405.75L155.5 406.86L154.58 408.15L153.91 409.62L153.5 411.3L153.36 413.18L153.45 415.17L153.72 417.15L154.16 419.12L154.76 421.08L155.52 423.02L156.44 424.95L157.29 426.48L158.63 426.42L161.25 426.18L163.8 425.83L166.33 425.4L168.9 424.93L171.5 424.43L174.13 423.89L176.78 423.32L179.45 422.71L182.12 422.07L184.8 421.39L187.47 420.68L190.14 419.94L192.79 419.17L195.43 418.37L198.04 417.54L200.61 416.68L203.16 415.79L205.66 414.87L208.11 413.92L210.5 412.94L212.84 411.94L215.11 410.91L216.61 410.2L215.24 409.88L211.77 409.07L208.29 408.28L204.82 407.5L201.37 406.75L197.94 406.03L194.56 405.35L191.24 404.72L187.97 404.15L184.79 403.64L181.69 403.21L178.69 402.86L175.8 402.61L173.03 402.45L170.39 402.4L167.9 402.47L165.57 402.65L165.57 402.65L163.41 402.98ZM87.33 366.89L85.14 367.37L83.16 368L81.4 368.79L79.88 369.76L78.6 370.91L77.59 372.24L76.88 373.71L77.27 375.45L79.83 385.11L80.42 387.02L80.76 387.82L82.8 392.03L85.08 396.18L86.86 399.12L86.96 399.23L88.83 401.05L90.82 402.83L92.92 404.57L95.12 406.27L97.42 407.92L99.82 409.52L102.29 411.07L104.85 412.56L107.47 414L110.16 415.37L112.9 416.67L115.69 417.91L118.52 419.08L121.39 420.17L124.28 421.19L127.2 422.13L130.13 422.99L133.06 423.76L136 424.45L138.93 425.04L141.84 425.54L143.29 425.74L143.18 425.5L142.15 422.75L141.25 419.96L140.48 417.13L139.85 414.25L139.35 411.34L138.99 408.39L138.77 405.41L138.69 402.4L138.77 399.52L138.99 396.94L139.35 394.63L139.85 392.59L140.48 390.81L141.25 389.28L142.15 387.98L143.18 386.9L144.34 386.04L145.61 385.37L147.01 384.9L148.52 384.6L150.15 384.47L151.88 384.5L153.73 384.67L155.68 384.97L157.73 385.39L159.88 385.92L162.13 386.55L164.48 387.27L166.91 388.06L169.43 388.92L172.04 389.83L174.73 390.78L177.5 391.76L180.35 392.76L183.27 393.77L186.26 394.77L189.32 395.76L192.44 396.72L195.63 397.65L198.88 398.53L202.19 399.34L205.54 400.08L208.96 400.74L212.41 401.31L215.92 401.77L219.47 402.11L223.05 402.33L226.68 402.4L229.57 402.34L230.24 401.8L231.67 400.56L232.97 399.3L234.14 398.02L235.18 396.72L236.08 395.4L236.84 394.07L237.44 392.71L237.88 391.34L238.16 389.95L238.28 388.54L238.21 387.12L237.97 385.69L237.62 384.31L237.25 383.06L236.84 381.92L236.4 380.91L235.93 380L235.43 379.2L234.9 378.5L234.33 377.9L233.72 377.39L233.08 376.97L232.39 376.63L231.67 376.37L230.91 376.18L230.1 376.07L229.25 376.01L228.36 376.02L227.42 376.08L226.43 376.19L225.4 376.35L224.31 376.54L223.18 376.78L222 377.04L220.76 377.33L219.47 377.64L218.12 377.97L216.72 378.32L215.26 378.67L213.74 379.02L212.17 379.37L210.53 379.72L208.83 380.06L207.07 380.38L205.24 380.68L203.35 380.95L201.39 381.2L199.37 381.41L197.27 381.58L195.11 381.71L192.88 381.79L190.57 381.82L188.13 381.76L185.51 381.59L182.72 381.32L179.78 380.96L176.69 380.51L173.47 379.98L170.13 379.39L166.68 378.73L163.14 378.03L159.52 377.28L155.84 376.5L152.1 375.69L148.31 374.87L144.5 374.03L140.67 373.2L136.83 372.38L133 371.57L129.19 370.79L125.42 370.05L121.69 369.34L118.02 368.69L114.42 368.1L110.91 367.58L107.49 367.13L104.18 366.77L100.99 366.51L97.94 366.34L95.03 366.29L92.29 366.36L89.72 366.56L89.72 366.56L87.33 366.89ZM305.85 354.48L304.26 354.81L302.58 355.24L300.83 355.74L299 356.31L297.08 356.94L295.09 357.62L293.01 358.33L290.84 359.08L288.59 359.84L286.24 360.6L283.8 361.36L281.27 362.11L278.65 362.84L275.92 363.53L273.1 364.18L270.18 364.78L267.15 365.31L264.02 365.77L260.78 366.14L257.44 366.42L254.14 366.59L254.06 369.41L253.82 372.5L253.42 375.55L252.87 378.56L252.17 381.54L251.32 384.48L250.33 387.37L249.19 390.21L247.92 393L246.51 395.75L244.97 398.44L243.41 400.91L244.4 400.74L247.81 400.08L251.17 399.34L254.47 398.53L257.72 397.65L260.91 396.72L264.04 395.76L267.1 394.77L270.09 393.77L273.01 392.76L275.86 391.76L278.63 390.78L281.32 389.83L283.92 388.92L286.45 388.06L288.88 387.27L291.22 386.55L293.47 385.92L295.62 385.39L297.68 384.97L299.63 384.67L301.47 384.5L303.21 384.47L304.83 384.6L306.35 384.9L307.74 385.37L309.02 386.04L310.17 386.9L311.2 387.98L312.1 389.28L312.87 390.81L313.51 392.59L314.01 394.63L314.37 396.94L314.59 399.52L314.66 402.4L314.59 405.41L314.51 406.42L315.96 404.46L317.78 401.69L319.38 398.88L320.77 396.03L321.94 393.13L322.87 390.2L323.55 387.24L323.99 384.23L324.16 381.19L324.07 378.12L323.69 375.02L323.15 372.04L322.57 369.33L321.94 366.88L321.27 364.68L320.54 362.72L319.77 360.99L318.94 359.48L318.06 358.18L317.12 357.08L316.13 356.16L315.07 355.43L313.95 354.87L312.77 354.47L311.53 354.21L310.21 354.09L308.83 354.11L307.38 354.24L307.38 354.24L305.85 354.48ZM90.82 334.36L87.44 335.4L84.38 336.77L81.66 338.49L79.31 340.57L77.34 343.05L75.77 345.94L75.13 347.8L76.65 347.93L78.81 348.24L81.07 348.68L83.44 349.23L85.92 349.88L88.51 350.62L91.19 351.44L93.97 352.33L96.85 353.27L99.82 354.26L102.87 355.27L106.01 356.31L109.23 357.35L112.53 358.39L115.91 359.42L119.35 360.42L122.87 361.37L126.45 362.28L130.1 363.12L133.8 363.89L137.56 364.58L141.38 365.16L145.24 365.64L149.16 365.99L153.11 366.21L157.11 366.29L161.11 366.21L165.06 365.99L168.97 365.64L172.84 365.16L176.65 364.58L180.42 363.89L184.12 363.12L187.77 362.28L191.35 361.37L194.86 360.42L198.31 359.42L201.69 358.39L204.63 357.47L202.43 356.83L196.73 355.14L190.95 353.4L185.1 351.61L179.2 349.81L173.28 348.01L167.35 346.23L161.43 344.49L155.54 342.8L149.71 341.19L143.94 339.67L138.27 338.26L132.71 336.98L127.28 335.85L121.99 334.89L116.88 334.11L111.95 333.54L107.23 333.18L102.74 333.07L98.49 333.22L94.52 333.64L94.52 333.64L90.82 334.36ZM289.43 63.7L279.47 65.13L269.64 66.96L259.95 69.18L250.41 71.76L241.02 74.72L231.79 78.04L222.73 81.71L213.85 85.72L205.15 90.07L196.65 94.74L188.35 99.73L180.26 105.03L172.39 110.64L164.75 116.54L157.34 122.73L150.17 129.19L143.26 135.93L136.6 142.92L130.21 150.17L124.09 157.67L118.26 165.4L112.72 173.36L107.48 181.54L102.54 189.94L97.92 198.53L93.62 207.33L89.66 216.31L86.03 225.48L82.75 234.81L79.83 244.31L77.27 253.97L75.08 263.77L73.27 273.71L71.85 283.79L70.93 292.98L71.18 292.99L74.33 293.36L77.65 294.04L81.15 294.98L84.82 296.17L88.65 297.58L92.65 299.19L96.8 300.96L101.1 302.88L105.54 304.92L110.13 307.05L114.85 309.25L119.7 311.49L124.68 313.74L129.78 315.99L135 318.21L140.33 320.37L145.77 322.44L151.3 324.4L156.94 326.22L162.66 327.89L168.48 329.37L174.38 330.63L180.35 331.66L186.4 332.43L192.51 332.91L198.69 333.07L204.87 332.91L210.99 332.43L217.04 331.66L223.01 330.63L228.91 329.37L234.72 327.89L240.45 326.22L246.08 324.4L251.62 322.44L257.06 320.37L262.39 318.21L267.6 315.99L272.7 313.74L277.68 311.49L282.54 309.25L287.26 307.05L291.84 304.92L292.76 304.5L292.82 302.02L293.19 296.53L293.81 291.11L294.66 285.75L295.74 280.47L297.06 275.26L298.59 270.12L300.35 265.07L302.31 260.11L304.49 255.23L306.87 250.46L309.45 245.78L312.22 241.21L315.18 236.74L318.33 232.39L321.65 228.16L325.15 224.05L328.82 220.06L332.65 216.21L336.65 212.49L340.8 208.91L345.1 205.47L349.54 202.18L354.13 199.04L358.85 196.06L363.7 193.24L368.68 190.59L373.78 188.1L379 185.79L384.33 183.66L389.77 181.71L395.3 179.95L400.94 178.37L406.66 177L412.48 175.82L418.38 174.85L424.35 174.08L430.4 173.53L436.51 173.2L442.69 173.09L448.87 173.2L454.99 173.53L461.04 174.08L467.01 174.85L472.91 175.82L478.72 177L484.45 178.37L490.08 179.95L495.62 181.71L501.06 183.66L506.39 185.79L511.6 188.1L516.7 190.59L521.68 193.24L526.54 196.06L531.26 199.04L535.84 202.18L540.29 205.47L544.59 208.91L548.6 212.37L546.38 207.33L542.08 198.53L537.46 189.94L532.52 181.54L527.28 173.36L521.74 165.4L515.91 157.67L509.79 150.17L503.4 142.92L496.74 135.93L489.83 129.19L482.66 122.73L475.25 116.54L467.61 110.64L459.74 105.03L451.65 99.73L443.35 94.74L434.85 90.07L426.15 85.72L417.27 81.71L408.21 78.04L398.98 74.72L389.59 71.76L380.05 69.18L370.36 66.96L360.53 65.13L350.57 63.7L340.49 62.66L330.3 62.03L320 61.82L309.7 62.03L299.51 62.66L299.51 62.66L289.43 63.7ZM472.41 280.8L468.55 281.2L464.73 281.68L460.97 282.24L457.27 282.87L453.62 283.56L450.04 284.31L446.52 285.1L443.08 285.91L439.7 286.76L436.76 287.52L438.96 288.04L444.66 289.43L450.44 290.86L456.29 292.32L462.19 293.8L468.11 295.28L474.04 296.74L479.96 298.17L485.84 299.56L491.68 300.88L497.44 302.13L503.12 303.29L508.68 304.34L514.11 305.27L519.4 306.06L524.51 306.7L529.44 307.17L534.16 307.46L538.65 307.55L542.89 307.43L546.87 307.08L550.56 306.49L553.95 305.64L557.01 304.52L559.73 303.11L562.08 301.39L564.05 299.36L565.61 296.99L566.26 295.46L564.73 295.35L562.58 295.1L560.32 294.74L557.94 294.28L555.46 293.75L552.88 293.14L550.2 292.47L547.41 291.74L544.54 290.96L541.57 290.15L538.52 289.32L535.38 288.47L532.16 287.61L528.86 286.76L525.48 285.91L522.03 285.1L518.52 284.31L514.94 283.56L511.29 282.87L507.59 282.24L503.82 281.68L500.01 281.2L496.14 280.8L492.23 280.51L488.28 280.33L484.28 280.27L480.28 280.33L476.32 280.51L476.32 280.51L472.41 280.8ZM322 253.5L320.61 255.85L319.45 258.22L318.52 260.63L317.83 263.07L317.4 265.53L317.22 268.03L317.32 270.55L317.69 273.1L318.23 275.55L318.82 277.78L319.44 279.79L320.12 281.59L320.84 283.2L321.62 284.63L322.45 285.87L323.33 286.93L324.27 287.84L325.26 288.59L326.32 289.19L327.44 289.65L328.62 289.98L329.86 290.19L331.18 290.29L332.56 290.28L334.01 290.17L335.53 289.97L337.13 289.7L338.81 289.35L340.56 288.93L342.39 288.46L344.3 287.95L346.3 287.39L348.38 286.8L350.55 286.19L352.8 285.57L355.15 284.94L357.58 284.32L360.11 283.7L362.74 283.1L365.46 282.53L368.29 282L371.21 281.51L374.24 281.08L377.37 280.7L380.6 280.39L383.95 280.16L387.25 280.03L387.32 277.71L387.56 275.17L387.96 272.67L388.51 270.19L389.22 267.74L390.06 265.33L391.06 262.96L392.19 260.62L393.47 258.33L394.87 256.07L396.41 253.87L397.98 251.84L396.99 251.97L393.58 252.51L390.22 253.12L386.91 253.79L383.66 254.51L380.48 255.27L377.35 256.06L374.29 256.88L371.3 257.7L368.38 258.53L365.53 259.35L362.76 260.16L360.07 260.94L357.46 261.69L354.94 262.39L352.51 263.04L350.16 263.63L347.92 264.15L345.76 264.58L343.71 264.93L341.76 265.18L339.92 265.32L338.18 265.34L336.55 265.23L335.04 264.98L333.64 264.59L332.37 264.05L331.21 263.34L330.19 262.46L329.28 261.39L328.51 260.13L327.88 258.67L327.38 256.99L327.02 255.1L326.8 252.97L326.73 250.61L326.8 248.14L326.87 247.31L325.42 248.92L323.61 251.19L323.61 251.19L322 253.5ZM500.13 236.19L500.9 238.51L501.54 240.87L502.04 243.27L502.4 245.69L502.62 248.14L502.69 250.61L502.62 252.97L502.4 255.1L502.04 256.99L501.54 258.67L500.9 260.13L500.13 261.39L499.23 262.46L498.21 263.34L497.05 264.05L495.77 264.59L494.38 264.98L492.87 265.23L491.24 265.34L489.5 265.32L487.66 265.18L485.71 264.93L483.66 264.58L481.5 264.15L479.25 263.63L476.91 263.04L474.48 262.39L471.96 261.69L469.35 260.94L466.66 260.16L463.89 259.35L461.04 258.53L458.12 257.7L455.13 256.88L452.07 256.06L448.94 255.27L445.75 254.51L442.51 253.79L439.2 253.12L435.84 252.51L432.43 251.97L428.97 251.51L425.47 251.13L421.92 250.85L418.33 250.67L414.71 250.61L411.82 250.66L411.14 251.1L409.72 252.12L408.42 253.15L407.24 254.21L406.2 255.27L405.3 256.36L404.55 257.46L403.95 258.57L403.51 259.7L403.22 260.84L403.11 261.99L403.17 263.16L403.42 264.34L403.76 265.47L404.14 266.5L404.55 267.43L404.98 268.26L405.45 269.01L405.95 269.67L406.49 270.24L407.06 270.73L407.67 271.15L408.31 271.5L408.99 271.78L409.72 271.99L410.48 272.14L411.29 272.24L412.14 272.28L413.03 272.28L413.97 272.23L414.96 272.14L415.99 272.01L417.07 271.85L418.21 271.66L419.39 271.44L420.63 271.2L421.92 270.94L423.27 270.67L424.67 270.39L426.13 270.1L427.64 269.81L429.22 269.52L430.86 269.24L432.56 268.96L434.32 268.7L436.14 268.45L438.04 268.23L439.99 268.02L442.02 267.85L444.11 267.71L446.28 267.6L448.51 267.54L450.82 267.51L453.26 267.56L455.88 267.7L458.67 267.92L461.61 268.22L464.7 268.59L467.92 269.02L471.26 269.51L474.71 270.05L478.24 270.63L481.86 271.24L485.55 271.89L489.29 272.55L493.08 273.23L496.89 273.91L500.72 274.59L504.56 275.27L508.39 275.93L512.19 276.57L515.97 277.19L519.7 277.76L523.37 278.3L526.96 278.78L530.48 279.21L533.9 279.58L537.21 279.87L540.39 280.09L543.45 280.23L546.35 280.27L549.1 280.21L551.67 280.05L554.06 279.78L556.25 279.39L558.23 278.87L559.99 278.21L561.51 277.42L562.78 276.48L563.8 275.38L564.53 274.13L564.99 272.7L565.01 272.42L564 269.63L562.44 266.09L560.63 262.59L558.58 259.13L556.31 255.72L554.53 253.31L554.42 253.22L552.56 251.72L550.57 250.26L548.47 248.82L546.26 247.43L543.96 246.07L541.57 244.76L539.09 243.49L536.54 242.26L533.92 241.09L531.23 239.96L528.49 238.89L525.7 237.87L522.87 236.91L520 236.01L517.11 235.18L514.19 234.4L511.26 233.7L508.32 233.07L505.39 232.5L502.46 232.02L499.55 231.6L498.1 231.44L498.21 231.64L499.23 233.89L499.23 233.89L500.13 236.19ZM477.59 231.37L475.05 231.72L472.49 232.11L469.88 232.52L467.25 232.96L464.61 233.43L461.94 233.93L459.27 234.46L456.59 235.01L453.91 235.59L451.25 236.2L448.59 236.83L445.96 237.49L443.35 238.18L440.77 238.88L438.23 239.62L435.73 240.37L433.28 241.15L430.88 241.95L428.55 242.77L426.28 243.62L424.78 244.21L426.14 244.47L429.62 245.13L433.1 245.78L436.57 246.42L440.02 247.04L443.44 247.63L446.82 248.19L450.15 248.71L453.41 249.18L456.6 249.59L459.7 249.94L462.7 250.23L465.59 250.44L468.36 250.57L470.99 250.61L473.48 250.56L475.82 250.4L477.98 250.14L479.97 249.76L481.76 249.26L483.36 248.63L484.74 247.86L485.89 246.95L486.81 245.89L487.48 244.68L487.89 243.3L488.03 241.75L487.94 240.12L487.67 238.5L487.23 236.88L486.63 235.27L485.86 233.67L484.95 232.09L484.1 230.84L482.75 230.89L480.13 231.08L480.13 231.08L477.59 231.37ZM416.38 205.25L412.28 206.27L408.16 207.35L404.03 208.49L399.89 209.69L395.76 210.94L391.63 212.26L387.53 213.63L383.46 215.05L379.43 216.53L375.44 218.06L371.51 219.64L367.65 221.28L363.86 222.96L360.16 224.69L356.54 226.47L353.03 228.3L349.63 230.17L346.35 232.09L343.19 234.05L341.4 235.24L341.71 236.32L342.05 237.31L342.42 238.21L342.81 239.02L343.24 239.74L343.69 240.37L344.18 240.92L344.69 241.4L345.24 241.81L345.83 242.14L346.45 242.41L347.1 242.61L347.8 242.76L348.53 242.86L349.3 242.9L350.11 242.89L350.96 242.85L351.85 242.76L352.79 242.64L353.77 242.48L354.8 242.29L355.88 242.08L357 241.85L358.17 241.61L359.39 241.34L360.66 241.07L361.98 240.79L363.36 240.51L364.79 240.23L366.27 239.96L367.81 239.69L369.41 239.44L371.07 239.2L372.78 238.98L374.56 238.78L376.39 238.62L378.29 238.48L380.25 238.38L382.28 238.31L384.37 238.29L386.58 238.34L388.96 238.47L391.49 238.69L394.16 238.98L396.96 239.33L399.88 239.75L402.91 240.22L406.03 240.74L408.79 241.22L410.61 239.81L413.09 238.03L415.68 236.31L418.36 234.65L421.14 233.06L424.02 231.54L426.99 230.09L430.04 228.71L433.18 227.41L436.4 226.18L439.7 225.03L443.08 223.96L446.52 222.98L450.04 222.07L453.62 221.26L457.27 220.53L460.97 219.89L464.73 219.35L468.55 218.9L470.62 218.71L468.83 217.58L466.66 216.32L464.41 215.09L462.1 213.9L459.72 212.77L457.28 211.68L454.8 210.64L452.27 209.66L449.7 208.74L447.1 207.87L444.47 207.06L441.83 206.31L439.17 205.63L436.51 205.02L433.85 204.48L431.2 204.01L428.55 203.61L425.93 203.29L425.29 203.23L424.46 203.4L420.44 204.29L420.44 204.29L416.38 205.25ZM474.48 206.55L476.91 208.15L479.25 209.81L481.5 211.54L483.66 213.32L485.71 215.15L487.66 217.04L488.72 218.16L492.23 218.29L496.14 218.55L500.01 218.9L503.82 219.35L507.59 219.89L511.29 220.53L514.94 221.26L517.91 221.94L515.27 220.39L511.04 218.07L506.72 215.87L502.34 213.79L497.91 211.85L493.44 210.04L488.93 208.37L484.4 206.85L479.87 205.48L475.33 204.26L470.8 203.21L467.41 202.54L469.35 203.55L471.96 205.02L471.96 205.02L474.48 206.55Z" id="kCJYiTce"></path></defs><g><g><g><use xlink:href="#kCJYiTce" opacity="1" fill="#000000" fill-opacity="1"></use></g></g></g></svg>